<svg width="242" height="209" viewBox="0 0 242 209" fill="none" xmlns="http://www.w3.org/2000/svg">
<path d="M8.99992 1.53332C7.53325 2.19999 5.13325 4.06666 3.66659 5.66666C1.13325 8.46666 0.999919 10.7333 0.599919 87.8L0.333252 166.867L4.19992 171.267L8.06659 175.667L48.3333 176.067L88.5999 176.467L87.7999 182.067C87.2666 185.133 85.9333 191.667 84.8666 196.6L82.8666 205.533L70.8666 205.933C64.0666 206.2 58.9999 206.867 58.9999 207.667C58.9999 208.6 80.5999 209 121 209C161.4 209 183 208.6 183 207.667C183 206.867 177.933 206.2 171.133 205.933L159.133 205.533L157.133 196.6C156.067 191.667 154.733 185.133 154.2 181.933L153.267 176.333H193H232.6L237.133 171.8L241.667 167.267L241.4 87.8L241 8.33332L237.267 4.73332L233.667 0.999989L122.6 0.733322C61.6666 0.599989 10.4666 0.999989 8.99992 1.53332ZM234.867 6.86666C236.333 8.33332 237.933 11.5333 238.333 13.9333C238.733 16.3333 238.867 44.7333 238.733 77L238.333 135.667H121H3.66659L3.26659 77C3.13325 44.7333 3.26659 16.3333 3.66659 13.9333C4.06659 11.5333 5.66659 8.33332 7.13325 6.86666C9.66659 4.33332 12.4666 4.33332 121 4.33332C229.533 4.33332 232.333 4.33332 234.867 6.86666ZM239 150.2C239 162.467 237.267 169 233.667 171C230.333 172.867 11.6666 172.867 8.33325 171C4.73325 169 2.99992 162.467 2.99992 150.2V139H121H239V150.2ZM151.667 186.6C152.867 192.333 154.467 199 155 201.267L156.067 205.667H121H85.9333L86.9999 201.267C87.5333 199 89.1333 192.333 90.3333 186.6L92.4666 176.333H121H149.533L151.667 186.6Z" fill="#0C2957"/>
<path d="M115.933 11.8C113.8 14.0667 115.4 15 121.133 15C125.4 15 127 14.4667 126.733 13.2667C126.067 11.5333 117.533 10.3333 115.933 11.8Z" fill="#0C2957"/>
<path d="M167 43.8C167 68.2 169.4 68.4666 169.933 44.3333L170.333 27.6666L173.933 27.2666L177.533 26.8666L177.933 39.2666C178.467 56.0666 181 55 181 37.9333V25L174.067 24.6L167 24.2V43.8Z" fill="#0C2957"/>
<path d="M21.6665 29.6667C21.6665 30.4667 26.3332 31 32.9998 31C39.6665 31 44.3332 30.4667 44.3332 29.6667C44.3332 28.8667 39.6665 28.3333 32.9998 28.3333C26.3332 28.3333 21.6665 28.8667 21.6665 29.6667Z" fill="#0C2957"/>
<path d="M210.333 35.2666C201.533 37.4 201.133 37.6666 202.6 39.1333C203.533 40.0666 205.533 40.0666 208.867 39.2666C211.533 38.4666 213.667 38.3333 213.533 38.7333C213.533 39.2666 201.133 50.0666 185.933 62.8666L158.333 85.9333L151 77.8L143.667 69.6666L121.267 83.1333L98.8666 96.7333L93.2666 91.2666L87.6666 85.8L57.9333 102.067C30.8666 116.867 25.5333 120.333 29.7999 120.333C30.7333 120.333 43.9333 113.4 59.3999 105L87.3999 89.5333L91.9333 95C94.4666 97.9333 97.1333 100.333 97.9333 100.333C98.7333 100.333 109.133 94.3333 121.133 87L142.867 73.8L149.8 81.6666C153.667 86.0666 157.4 89.6666 158.2 89.5333C159 89.5333 172.6 78.4666 188.333 65.1333C204.067 51.6666 217.133 40.7333 217.4 41C217.533 41.1333 216.867 43.6666 215.8 46.7333C214.067 51.6666 214.867 55.8 217 52.3333C218.067 50.6 223 36.2 223 34.7333C223 33.4 217.267 33.5333 210.333 35.2666Z" fill="#0C2957"/>
<path d="M122.6 37.1333C121.133 38.7333 121.533 71 123 71C123.8 71 124.333 65 124.333 55.6667V40.3333H128.333H132.333V50.8667C132.333 56.7333 133 61.9333 133.667 62.3333C134.6 63 135 58.8667 134.733 50.0667L134.333 37L129 36.6C125.933 36.3333 123.133 36.6 122.6 37.1333Z" fill="#0C2957"/>
<path d="M22.6001 39.8C20.0668 42.4667 22.8668 43 35.0001 42.7334C42.7335 42.4667 48.3335 41.8 48.3335 41C48.3335 39.5334 24.0668 38.3334 22.6001 39.8Z" fill="#0C2957"/>
<path d="M57.2665 39.8C55.7998 41.4 57.6665 43 61.1331 43C63.2665 43 64.3331 42.3333 64.0665 41.2667C63.3998 39.5333 58.7331 38.3333 57.2665 39.8Z" fill="#0C2957"/>
<path d="M144.333 52.8667C144.333 57 145 60.3333 145.667 60.3333C146.467 60.3333 147 57.6667 147 54.3333C147 48.6 147.133 48.3333 151 48.3333H155V58.4667C155 65.9333 155.4 68.4667 156.733 67.9333C157.8 67.6667 158.333 64.2 158.333 56.8667V46.3333L151.4 45.9333L144.333 45.5333V52.8667Z" fill="#0C2957"/>
<path d="M21.6665 52.3334C21.6665 53 24.7332 53.6667 28.3332 53.6667C32.0665 53.6667 34.9998 53 34.9998 52.3334C34.9998 51.5334 32.0665 51 28.3332 51C24.7332 51 21.6665 51.5334 21.6665 52.3334Z" fill="#0C2957"/>
<path d="M40.333 52.3334C40.333 53.1334 44.333 53.6667 49.6663 53.6667C54.9997 53.6667 58.9997 53.1334 58.9997 52.3334C58.9997 51.5334 54.9997 51 49.6663 51C44.333 51 40.333 51.5334 40.333 52.3334Z" fill="#0C2957"/>
<path d="M75.9333 54.6C75.4 55 75 60.7333 75 67.2667C75 76.8667 75.4 79 77 79C78.6 79 79 76.8667 79 67.5333V56.2L82.7333 56.6C86.2 57 86.3333 57.4 86.7333 65.2667C87.2667 77.1333 89.6667 75.8 89.6667 63.6667V53.6667H83.2667C79.6667 53.6667 76.3333 54.0667 75.9333 54.6Z" fill="#0C2957"/>
<path d="M97.9332 73.2666C98.4665 86.0666 100.867 87 101.4 74.6C101.8 65.6666 101.8 65.6666 105.667 65.6666C109.533 65.6666 109.667 65.9333 109.667 71.6666C109.667 75 110.333 77.6666 111 77.6666C111.8 77.6666 112.333 74.3333 112.333 70.3333V63H105H97.5332L97.9332 73.2666Z" fill="#0C2957"/>
<path d="M52.8666 74.0667C51.6666 77.1333 52.8666 91 54.3332 91C55.1332 91 55.7999 87.6667 56.0666 83.6667C56.4666 76.4667 56.5999 76.3333 60.3332 76.3333C64.0666 76.3333 64.3332 76.7333 64.3332 81C64.3332 83.5333 64.9999 85.6667 65.7999 85.6667C66.5999 85.6667 66.9999 83.1333 66.7332 79.2667L66.3332 73L59.9332 72.6C55.3999 72.3333 53.3999 72.7333 52.8666 74.0667Z" fill="#0C2957"/>
<path d="M178.6 91.8C178.067 92.3333 177.667 99.2667 177.667 107.267V121.667H173.667H169.667V109.667C169.667 102.6 169.133 97.6667 168.333 97.6667C167.533 97.6667 167 103.267 167 111.8V125.8L174.067 125.4L181 125L181.4 109.133C181.667 94.4667 180.867 89.5333 178.6 91.8Z" fill="#0C2957"/>
<path d="M132.333 107V121.667H128.333H124.333V111C124.333 104.733 123.8 100.333 123 100.333C122.2 100.333 121.667 105.4 121.667 113V125.667H128.333H135V109C135 98.7334 134.467 92.3334 133.667 92.3334C132.867 92.3334 132.333 98.0667 132.333 107Z" fill="#0C2957"/>
<path d="M144.333 111.133V125.8L151.4 125.4L158.333 125V115.133C158.333 108.333 157.8 105 156.733 104.6C155.4 104.2 155 106.467 155 112.867V121.667H151H147V109C147 101.4 146.467 96.3333 145.667 96.3333C144.867 96.3333 144.333 102.2 144.333 111.133Z" fill="#0C2957"/>
<path d="M75.2665 114.6L75.6665 125L82.7332 125.4L89.6665 125.8V115.133C89.6665 108.867 89.1332 104.333 88.3332 104.333C87.5332 104.333 86.9999 108.067 86.9999 113V121.667H82.9999H78.9999V113C78.9999 106.067 78.5999 104.333 76.9999 104.333C75.2665 104.333 74.9999 106.067 75.2665 114.6Z" fill="#0C2957"/>
<path d="M64.3331 115C64.3331 121.533 64.1998 121.667 60.4664 121.667C57.3998 121.667 56.4664 121 56.0664 118.733C55.7998 117.133 54.8664 115.667 53.9331 115.267C52.5998 114.867 52.3331 116.067 52.5998 119.8L52.9998 125L60.0664 125.4L66.9998 125.8V117.133C66.9998 112.2 66.4664 108.333 65.6664 108.333C64.9998 108.333 64.3331 111.267 64.3331 115Z" fill="#0C2957"/>
<path d="M109.666 115C109.666 121.533 109.533 121.667 105.8 121.667C102.333 121.667 101.8 121.133 101.4 117.267C100.866 111 98.333 112.6 98.333 119.267V125L105.4 125.4L112.333 125.8V117.133C112.333 112.2 111.8 108.333 111 108.333C110.333 108.333 109.666 111.267 109.666 115Z" fill="#0C2957"/>
<path d="M115.533 153C112.067 158.2 114.733 163 121 163C124.733 163 126.067 162.333 127.267 159.667C129.267 155.4 125.667 149.667 121 149.667C119 149.667 116.867 151 115.533 153ZM124.067 156.867C123.8 158.6 122.733 159.667 121 159.667C117.933 159.667 116.6 155.133 119.133 153.667C121.8 151.933 124.467 153.8 124.067 156.867Z" fill="#0C2957"/>
</svg>
