<svg width="383" height="378" viewBox="0 0 383 378" fill="none" xmlns="http://www.w3.org/2000/svg">
<path d="M174.669 12.5508C140.483 16.0945 109.738 28.2023 81.911 48.948C74.281 54.7066 58.8712 69.4723 52.5876 77.1504C35.8313 97.6746 23.339 122.259 17.1302 147.287C13.3151 162.791 12.4175 170.764 12.4175 189C12.4175 207.752 13.3899 216.169 17.579 232.189C21.0948 245.774 24.0122 253.452 30.2958 266.15C39.7212 285.198 49.0718 298.044 65.0052 313.843C80.789 329.421 93.9546 338.797 112.581 347.73C130.16 356.221 147.066 361.536 166.066 364.416C178.035 366.261 204.89 366.261 216.784 364.416C236.308 361.389 252.615 356.368 269.671 348.173C305.876 330.676 334.826 302.252 352.405 266.889C358.539 254.633 362.055 245.183 365.421 232.189C369.61 216.169 370.582 207.679 370.582 189C370.582 170.248 369.61 161.831 365.421 145.811C361.905 132.226 358.988 124.548 352.704 111.85C344.027 94.2047 334.452 80.6941 320.538 66.5191C304.979 50.5723 289.494 39.4242 269.671 29.8266C252.915 21.7055 236.233 16.5375 217.308 13.6582C208.481 12.3293 183.271 11.6648 174.669 12.5508ZM206.536 36.1758C264.434 42.0082 314.18 78.9961 335.948 132.448C367.815 210.927 328.393 300.48 248.052 331.857C195.465 352.455 135.172 342.562 91.486 306.239C28.2013 253.6 17.6538 162.791 67.1745 96.9363C73.4581 88.5937 89.7655 72.573 98.3681 66.2977C129.861 43.1895 168.684 32.4105 206.536 36.1758Z" fill="#0C2957"/>
<path d="M186.638 60.0961C183.87 61.3512 181.401 63.9352 180.354 66.6668C179.756 68.0695 179.531 85.05 179.531 118.494V168.18L175.043 172.684L170.48 177.114L142.877 177.335C116.396 177.557 115.199 177.63 113.254 179.107C109.364 181.986 108.093 184.349 108.093 188.926C108.093 192.47 108.467 193.651 110.262 195.94C113.928 200.739 114.302 200.812 144.074 200.812H170.704L173.996 204.43C175.941 206.571 179.157 209.007 181.626 210.189C185.216 211.961 186.787 212.256 191.874 212.182C196.886 212.182 198.532 211.813 201.748 210.189C206.685 207.679 210.426 203.987 212.969 199.114C214.615 195.94 214.989 194.316 214.989 189.369C215.063 181.691 213.044 177.114 207.508 172.093L203.469 168.402V118.494C203.469 63.3445 203.618 65.4117 198.681 61.6465C195.39 59.2102 190.079 58.4719 186.638 60.0961Z" fill="#0C2957"/>
</svg>
