<svg width="383" height="378" viewBox="0 0 383 378" fill="none" xmlns="http://www.w3.org/2000/svg">
<path d="M174.669 12.5508C140.483 16.0945 109.738 28.2023 81.911 48.948C74.281 54.7066 58.8712 69.4723 52.5876 77.1504C35.8313 97.6746 23.339 122.259 17.1302 147.287C13.3151 162.791 12.4175 170.764 12.4175 189C12.4175 207.752 13.3899 216.169 17.579 232.189C21.0948 245.774 24.0122 253.452 30.2958 266.15C39.7212 285.198 49.0718 298.044 65.0052 313.843C80.789 329.421 93.9546 338.797 112.581 347.73C130.16 356.221 147.066 361.536 166.066 364.416C178.035 366.261 204.89 366.261 216.784 364.416C236.308 361.389 252.615 356.368 269.671 348.173C305.876 330.676 334.826 302.252 352.405 266.889C358.539 254.633 362.055 245.183 365.421 232.189C369.61 216.169 370.582 207.679 370.582 189C370.582 170.248 369.61 161.831 365.421 145.811C361.905 132.226 358.988 124.548 352.704 111.85C344.027 94.2047 334.452 80.6941 320.538 66.5191C304.979 50.5723 289.494 39.4242 269.671 29.8266C252.915 21.7055 236.233 16.5375 217.308 13.6582C208.481 12.3293 183.271 11.6648 174.669 12.5508ZM206.536 36.1758C264.434 42.0082 314.18 78.9961 335.948 132.448C367.815 210.927 328.393 300.48 248.052 331.857C195.465 352.455 135.172 342.562 91.486 306.239C28.2013 253.6 17.6538 162.791 67.1745 96.9363C73.4581 88.5937 89.7655 72.573 98.3681 66.2977C129.861 43.1895 168.684 32.4105 206.536 36.1758Z" fill="#00FAFF" fill-opacity="0.275"/>
<path d="M18.0627 232.063L18.0631 232.064C21.5698 245.613 24.4748 253.259 30.7439 265.929C40.1434 284.924 49.4605 297.725 65.3565 313.488C81.1037 329.029 94.2243 338.372 112.797 347.28L112.798 347.28C130.334 355.75 147.192 361.05 166.141 363.921L166.143 363.921C172.088 364.838 181.764 365.3 191.453 365.3C201.143 365.3 210.799 364.838 216.707 363.922L216.784 364.416L216.707 363.922C236.184 360.902 252.444 355.896 269.453 347.723C305.561 330.273 334.428 301.928 351.957 266.666L351.958 266.665C358.076 254.441 361.579 245.024 364.937 232.064L364.937 232.063C369.114 216.09 370.082 207.643 370.082 189C370.082 170.284 369.114 161.91 364.937 145.937L364.937 145.936C361.43 132.387 358.525 124.741 352.256 112.071L352.255 112.07C343.602 94.4734 334.058 81.0066 320.181 66.8694L320.18 66.8683C304.661 50.9627 289.224 39.8489 269.453 30.2766L269.664 29.8416L269.453 30.2765C252.742 22.1777 236.109 17.0244 217.232 14.1525C212.852 13.4932 204.371 12.9952 195.891 12.7737C187.41 12.5522 178.986 12.6089 174.72 13.0481C140.626 16.5824 109.967 28.656 82.2103 49.3486C74.6112 55.0844 59.2328 69.8201 52.9749 77.4666C36.2635 97.9359 23.806 122.454 17.6157 147.407C13.8115 162.866 12.9175 170.799 12.9175 189C12.9175 207.716 13.886 216.09 18.0627 232.063ZM206.585 35.6782L206.586 35.6783C264.667 41.5291 314.572 78.6341 336.411 132.259L336.411 132.26C368.386 211.005 328.826 300.848 248.234 332.323C195.475 352.988 134.991 343.062 91.1664 306.624L91.1663 306.623C27.6762 253.813 17.0942 162.703 66.7749 96.6358L66.7751 96.6355C69.9397 92.4341 75.6086 86.3225 81.5513 80.4851C87.4943 74.6474 93.7424 69.0531 98.0734 65.8937C129.663 42.715 168.608 31.9005 206.585 35.6782Z" stroke="#00FAFF" stroke-opacity="0.275"/>
<path d="M186.638 60.0961C183.87 61.3512 181.401 63.9352 180.354 66.6668C179.756 68.0695 179.531 85.05 179.531 118.494V168.18L175.043 172.684L170.48 177.114L142.877 177.335C116.396 177.557 115.199 177.63 113.254 179.107C109.364 181.986 108.093 184.349 108.093 188.926C108.093 192.47 108.467 193.651 110.262 195.94C113.928 200.739 114.302 200.812 144.074 200.812H170.704L173.996 204.43C175.941 206.571 179.157 209.007 181.626 210.189C185.216 211.961 186.787 212.256 191.874 212.182C196.886 212.182 198.532 211.813 201.748 210.189C206.685 207.679 210.426 203.987 212.969 199.114C214.615 195.94 214.989 194.316 214.989 189.369C215.063 181.691 213.044 177.114 207.508 172.093L203.469 168.402V118.494C203.469 63.3445 203.618 65.4117 198.681 61.6465C195.39 59.2102 190.079 58.4719 186.638 60.0961Z" fill="#00FAFF" fill-opacity="0.275"/>
<path d="M186.851 60.5483L186.844 60.5515C184.191 61.7544 181.819 64.2418 180.821 66.8458L180.818 66.8545L180.814 66.863C180.802 66.8909 180.774 66.9876 180.74 67.1938C180.708 67.3878 180.676 67.6461 180.645 67.9723C180.582 68.6241 180.525 69.5236 180.473 70.6762C180.368 72.9803 180.284 76.2735 180.218 80.5726C180.087 89.1695 180.031 101.772 180.031 118.494V168.18V168.387L179.885 168.533L175.397 173.037L175.397 173.037L175.391 173.043L170.828 177.472L170.684 177.612L170.484 177.614L142.881 177.835C129.633 177.946 122.731 178.02 118.895 178.25C116.974 178.365 115.858 178.517 115.111 178.721C114.392 178.917 114.01 179.161 113.557 179.505L113.557 179.505L113.552 179.509C111.635 180.928 110.411 182.185 109.657 183.613C108.905 185.038 108.593 186.683 108.593 188.926C108.593 190.69 108.687 191.807 108.982 192.755C109.273 193.694 109.772 194.505 110.656 195.631L110.656 195.631L110.659 195.636C111.582 196.845 112.247 197.682 113.183 198.311C114.112 198.934 115.35 199.377 117.45 199.681C121.677 200.293 129.164 200.312 144.074 200.312H170.704H170.925L171.074 200.476L174.366 204.094L174.366 204.094C176.271 206.191 179.436 208.586 181.842 209.738L181.847 209.74C183.627 210.618 184.871 211.113 186.284 211.387C187.707 211.662 189.326 211.719 191.867 211.682V211.682H191.874C194.374 211.682 195.996 211.589 197.384 211.305C198.762 211.022 199.932 210.545 201.522 209.743C206.367 207.28 210.031 203.663 212.525 198.884C213.339 197.315 213.821 196.161 214.107 194.803C214.395 193.435 214.489 191.836 214.489 189.369L214.489 189.364C214.526 185.57 214.045 182.581 212.894 179.934C211.743 177.287 209.906 174.943 207.172 172.464L207.171 172.462L203.131 168.771L202.969 168.622V168.402V118.494C202.969 116.885 202.969 115.325 202.969 113.811C202.971 89.3794 202.972 77.2656 202.428 70.8434C202.139 67.4281 201.7 65.705 201.077 64.609C200.545 63.6721 199.871 63.1666 198.878 62.4214C198.721 62.3034 198.556 62.1794 198.382 62.0468C196.815 60.8879 194.749 60.121 192.65 59.8443C190.548 59.567 188.462 59.7877 186.851 60.5483Z" stroke="#00FAFF" stroke-opacity="0.275"/>
</svg>
