<svg width="683" height="683" viewBox="0 0 683 683" fill="none" xmlns="http://www.w3.org/2000/svg">
<path d="M232 2.80005C225.2 6.80005 186.933 45.2 183.867 50.9334C181.733 55.2 181.333 58.8 181.333 77.8667C181.333 90.0001 182 103.067 182.8 106.933C185.2 118.133 191.467 130 200.133 139.2L208 147.733V173.867V200H176C146.4 200 143.467 200.267 138.667 202.667C135.2 204.4 132.4 207.2 130.667 210.667C128.133 215.733 128 218.4 128 289.333V362.667H92C61.3333 362.667 55.2 362.933 51.6 364.8C45.6 367.867 5.6 407.6 2.53333 413.6C0.4 417.867 0 421.467 0 440.533C0 452.667 0.666667 465.733 1.46667 469.6C3.86667 480.8 10.1333 492.667 18.8 501.867L26.6667 510.4V588.533C26.6667 664.267 26.8 666.933 29.3333 672C31.0667 675.467 33.8667 678.267 37.3333 680C42.4 682.667 44.9333 682.667 160 682.667C275.067 682.667 277.6 682.667 282.667 680C286.133 678.267 288.933 675.467 290.667 672C293.2 666.933 293.333 664.267 293.333 588.533V510.4L301.2 501.867C309.867 492.667 316.133 480.8 318.533 469.6C319.333 465.733 320 452.667 320 440.533C320 421.467 319.6 417.867 317.467 413.6C314.267 407.6 274.267 367.733 268.4 364.8C264.667 362.933 257.467 362.667 216 362.667H168V301.333V240H188H208V272C208 301.6 208.267 304.533 210.667 309.333C212.4 312.8 215.2 315.6 218.667 317.333C223.733 320 226.267 320 341.333 320C456.4 320 458.933 320 464 317.333C467.467 315.6 470.267 312.8 472 309.333C474.4 304.533 474.667 301.6 474.667 272V240H494.667H514.667V301.333V362.667H466.667C424.933 362.667 418 362.933 414.267 364.8C408.267 367.867 368.267 407.6 365.2 413.6C363.067 417.867 362.667 421.467 362.667 440.533C362.667 452.667 363.333 465.733 364.133 469.6C366.533 480.8 372.8 492.667 381.467 501.867L389.333 510.4V588.533C389.333 664.267 389.467 666.933 392 672C393.733 675.467 396.533 678.267 400 680C405.067 682.667 407.6 682.667 522.667 682.667C637.733 682.667 640.267 682.667 645.333 680C648.8 678.267 651.6 675.467 653.333 672C655.867 666.933 656 664.267 656 588.533V510.4L663.867 501.867C672.533 492.667 678.8 480.8 681.2 469.6C682 465.733 682.667 452.667 682.667 440.533C682.667 421.467 682.267 417.867 680.133 413.6C676.933 407.6 636.933 367.733 631.067 364.8C627.467 363.067 621.067 362.667 590.667 362.667H554.667V289.333C554.667 218.4 554.533 215.733 552 210.667C550.267 207.2 547.467 204.4 544 202.667C539.2 200.267 536.267 200 506.667 200H474.667V173.867V147.733L482.533 139.2C491.2 130 497.467 118.133 499.867 106.933C500.667 103.067 501.333 90.0001 501.333 77.8667C501.333 58.8 500.933 55.2 498.8 50.9334C495.6 44.9334 455.6 5.06671 449.733 2.13338C445.867 0.266712 434.133 4.57764e-05 341.067 4.57764e-05C237.733 4.57764e-05 236.667 4.57764e-05 232 2.80005ZM447.2 54.5334L461.6 68.9334L461.2 85.4667C460.533 104.4 458.667 109.333 448.933 115.733C441.467 120.667 428.533 120.933 420.933 116.133C413.867 111.733 409.467 104.533 408.4 95.8667C407.333 85.7334 403.733 79.2 397.333 76C390.667 72.6667 385.333 72.6667 378.667 76C372.4 79.2 368.667 85.7334 367.6 95.7334C366.533 104.533 362.667 111.067 355.6 115.733C348.133 120.667 335.2 120.933 327.6 116.133C320.533 111.733 316.133 104.533 315.067 95.8667C314.667 91.8667 313.2 86.4001 311.733 83.7334C308.933 78 301.2 73.3334 294.667 73.3334C288.133 73.3334 280.4 78 277.6 83.7334C276.133 86.4001 274.667 91.8667 274.267 95.8667C273.2 104.533 268.8 111.733 261.733 116.133C254.133 120.933 241.2 120.667 233.733 115.733C224 109.333 222.133 104.4 221.467 85.4667L221.067 68.9334L235.467 54.5334L250 40H341.333H432.667L447.2 54.5334ZM300.933 146.267C324.8 164.4 357.867 164.4 381.733 146.267L388 141.333L394.4 146.267C403.067 152.933 413.333 157.2 424.933 159.067L434.667 160.667V220.267V280H418H401.333V248C401.333 218.4 401.067 215.467 398.667 210.667C396.933 207.2 394.133 204.4 390.667 202.667C385.733 200.133 382.933 200 341.333 200C299.733 200 296.933 200.133 292 202.667C288.533 204.4 285.733 207.2 284 210.667C281.6 215.467 281.333 218.4 281.333 248V280H264.667H248V220.267V160.667L258.133 158.933C269.2 157.2 282.133 151.6 289.333 145.467C291.867 143.2 294.133 141.467 294.267 141.333C294.533 141.333 297.467 143.467 300.933 146.267ZM361.333 260V280H341.333H321.333V260V240H341.333H361.333V260ZM265.867 417.2L280.267 431.6L279.867 448.133C279.2 467.067 277.333 472 267.6 478.4C260.133 483.333 247.2 483.6 239.6 478.8C232.533 474.4 228.133 467.2 227.067 458.533C226 448.4 222.4 441.867 216 438.667C209.333 435.333 204 435.333 197.333 438.667C191.067 441.867 187.333 448.4 186.267 458.4C185.2 467.2 181.333 473.733 174.267 478.4C166.8 483.333 153.867 483.6 146.267 478.8C139.2 474.4 134.8 467.2 133.733 458.533C133.333 454.533 131.867 449.067 130.4 446.4C127.6 440.667 119.867 436 113.333 436C106.8 436 99.0667 440.667 96.2667 446.4C94.8 449.067 93.3333 454.533 92.9333 458.533C91.8667 467.2 87.4667 474.4 80.4 478.8C72.8 483.6 59.8667 483.333 52.4 478.4C42.6667 472 40.8 467.067 40.1333 448.133L39.7333 431.6L54.1333 417.2L68.6667 402.667H160H251.333L265.867 417.2ZM628.533 417.2L642.933 431.6L642.533 448.133C641.867 467.067 640 472 630.267 478.4C622.8 483.333 609.867 483.6 602.267 478.8C595.2 474.4 590.8 467.2 589.733 458.533C588.667 448.4 585.067 441.867 578.667 438.667C572 435.333 566.667 435.333 560 438.667C553.733 441.867 550 448.4 548.933 458.4C547.867 467.2 544 473.733 536.933 478.4C529.467 483.333 516.533 483.6 508.933 478.8C501.867 474.4 497.467 467.2 496.4 458.533C496 454.533 494.533 449.067 493.067 446.4C490.267 440.667 482.533 436 476 436C469.467 436 461.733 440.667 458.933 446.4C457.467 449.067 456 454.533 455.6 458.533C454.533 467.2 450.133 474.4 443.067 478.8C435.467 483.6 422.533 483.333 415.067 478.4C405.333 472 403.467 467.067 402.8 448.133L402.4 431.6L416.8 417.2L431.333 402.667H522.667H614L628.533 417.2ZM119.6 508.933C143.467 527.067 176.533 527.067 200.4 508.933L206.667 504L213.067 508.933C221.733 515.6 232 519.867 243.6 521.733L253.333 523.333V582.933V642.667H236.667H220V610.667C220 581.067 219.733 578.133 217.333 573.333C215.6 569.867 212.8 567.067 209.333 565.333C204.4 562.8 201.6 562.667 160 562.667C118.4 562.667 115.6 562.8 110.667 565.333C107.2 567.067 104.4 569.867 102.667 573.333C100.267 578.133 100 581.067 100 610.667V642.667H83.3333H66.6667V582.933V523.333L76.8 521.6C87.8667 519.867 100.8 514.267 108 508.133C110.533 505.867 112.8 504.133 112.933 504C113.2 504 116.133 506.133 119.6 508.933ZM482.267 508.933C506.133 527.067 539.2 527.067 563.067 508.933L569.333 504L575.733 508.933C584.4 515.6 594.667 519.867 606.267 521.733L616 523.333V582.933V642.667H599.333H582.667V610.667C582.667 581.067 582.4 578.133 580 573.333C578.267 569.867 575.467 567.067 572 565.333C567.067 562.8 564.267 562.667 522.667 562.667C481.067 562.667 478.267 562.8 473.333 565.333C469.867 567.067 467.067 569.867 465.333 573.333C462.933 578.133 462.667 581.067 462.667 610.667V642.667H446H429.333V582.933V523.333L439.467 521.6C450.533 519.867 463.467 514.267 470.667 508.133C473.2 505.867 475.467 504.133 475.6 504C475.867 504 478.8 506.133 482.267 508.933ZM180 622.667V642.667H160H140V622.667V602.667H160H180V622.667ZM542.667 622.667V642.667H522.667H502.667V622.667V602.667H522.667H542.667V622.667Z" fill="#0C2957"/>
</svg>
