<svg width="507" height="683" viewBox="0 0 507 683" fill="none" xmlns="http://www.w3.org/2000/svg">
<path d="M247.133 1.8665C235.533 8.2665 240.467 26.6665 253.667 26.6665C260.467 26.6665 267 20.1332 267 13.4665C267 3.4665 255.933 -3.06683 247.133 1.8665Z" fill="#0C2957"/>
<path d="M173.133 13.3332C109.667 34.1332 55.8 81.4666 26.3334 142C0.0667134 196 -6.46662 257.333 8.06671 314.667C19.4 358.933 39.5334 395.6 70.8667 428.267C77.5334 435.2 83.0001 441.333 83.0001 441.733C83.0001 442.133 64.7334 474.667 42.3334 514.133C19.9334 553.6 1.66671 587.333 1.66671 589.067C1.66671 594 5.26671 599.467 9.66671 601.333C13.5334 602.933 18.4667 602.133 61.1334 593.333C87.1334 588 108.6 583.867 108.867 584.133C109.133 584.4 116.333 604.133 124.733 628C142.867 679.333 142.467 678.4 147.133 680.8C153.133 683.867 157.533 683.067 162.2 678.267C164.467 676 185.933 639.6 209.667 597.733C233.533 555.733 253.267 521.333 253.667 521.333C254.067 521.333 273.8 555.733 297.667 597.733C321.4 639.6 342.867 676 345.133 678.4C349.8 683.067 354.2 683.867 360.2 680.8C364.867 678.4 364.467 679.333 382.6 628C391 604.133 398.2 584.4 398.467 584.133C398.733 583.867 420.2 588 446.2 593.333C488.867 602.133 493.8 602.933 497.667 601.333C502.067 599.467 505.667 594 505.667 588.933C505.667 587.2 487.4 553.6 465 514.133C442.6 474.8 424.333 442.133 424.333 441.6C424.333 441.067 427.4 437.6 431.133 434C471.4 394.933 498.333 339.733 505 282.667C517.667 175.333 461.133 72.3999 363.667 25.3332C345.933 16.7999 320.333 7.99991 312.867 7.99991C302.333 7.99991 295.933 22.1332 303.4 29.3332C305.133 30.9332 313.933 34.7999 323.667 37.9999C370.733 53.4666 409.267 81.5999 438.333 122C448.867 136.533 464.067 166.8 469.4 184C490.333 250.4 480.2 322.533 441.933 379.333C404.333 435.2 344.467 471.333 277.4 478.533C184.333 488.667 93.2667 438.8 51 354.667C24.7334 302.4 20.0667 240.8 37.9334 184C43.2667 166.8 58.3334 136.667 69.2667 121.333C80.8667 105.067 105.4 80.5332 121.667 68.9332C137.4 57.8666 167.267 42.9332 185 37.3332C201.533 32.2666 203.667 31.1999 205.533 27.0666C208.2 21.3332 207.267 16.1332 203.133 11.8666C197.8 6.66658 192.733 6.79991 173.133 13.3332ZM116.467 466.133C145.667 485.333 189 501.067 222.733 504.8C227.267 505.333 230.867 506.133 230.733 506.667C229.133 510.267 157 636 156.467 636C156.067 636 151.267 623.2 145.8 607.6C129 559.6 128.6 558.8 123.533 556.267C119.133 554.267 117.8 554.4 80.7334 562.267C59.5334 566.667 42.2 570.133 41.9334 569.867C41.4 569.467 104.067 458.667 104.867 458.667C105 458.667 110.2 462 116.467 466.133ZM434.867 514.933C451.8 544.8 465.667 569.467 465.667 569.733C465.667 570 448.2 566.533 427 562.133C389.533 554.4 388.2 554.267 383.8 556.267C378.733 558.8 378.333 559.6 361.533 607.6C356.067 623.2 351.267 636 350.867 636C350.333 636 278.067 510.267 276.6 506.667C276.467 506.133 280.067 505.333 284.6 504.8C318.2 501.067 358.6 486.533 389.667 466.933C396.6 462.533 402.733 459.333 403.267 459.733C403.667 460.267 417.933 485.067 434.867 514.933Z" fill="#0C2957"/>
<path d="M229.667 54.6666C179.4 61.5999 137 84.1332 103.267 122.133C80.7334 147.2 65.1334 178.8 57.5334 214.667C53.1334 234.8 53.1334 271.867 57.5334 292C67.1334 336.8 87.6667 372.4 121.667 403.067C146.867 425.867 179 441.867 215 449.467C235.133 453.867 272.2 453.867 292.333 449.467C373.133 432.267 432.6 372.8 449.8 292C452.333 280.4 452.867 273.867 452.867 253.333C452.867 232.8 452.333 226.267 449.8 214.667C432.6 134 372.867 74.1332 293 57.3332C277.8 54.1332 243.8 52.6666 229.667 54.6666ZM289.667 83.8666C324.067 91.7332 350.2 106 375.133 130.667C400.733 155.867 416.067 184.133 423.8 220C427.133 235.733 427.267 270.8 423.8 286.4C416.067 322.4 400.6 350.8 375.133 376C349.8 401.2 322.467 415.867 287 423.467C271.267 426.8 236.2 426.933 220.6 423.467C184.6 415.733 156.2 400.267 131 374.8C105.8 349.333 91.2667 322.267 83.5334 286.667C80.0667 270.8 80.0667 235.867 83.5334 220.133C91.2667 184.267 105.667 157.467 131 131.867C158.467 104 192.733 86.7999 231.133 81.3332C244.333 79.4666 276.467 80.7999 289.667 83.8666Z" fill="#0C2957"/>
<path d="M247.267 125.733C245 126.8 239.267 136.8 226.867 161.6C217.4 180.533 209.533 196 209.267 196C195 197.467 133.133 208.133 131.533 209.467C128.2 212.133 125.667 219.067 126.6 222.8C127 224.533 139.533 238.267 154.6 253.467L181.8 280.8L175.667 317.333C172.333 337.333 169.933 355.467 170.333 357.467C170.733 359.333 172.6 362.4 174.467 364.133C180.733 370 184.733 368.667 219.933 350.267C237.667 340.933 252.867 333.333 253.8 333.333C254.6 333.333 269.8 340.933 287.533 350.267C322.6 368.8 326.6 370 332.867 364.133C334.733 362.4 336.6 359.467 337 357.467C337.4 355.6 335 337.467 331.667 317.333L325.533 280.8L353.133 253.2C378.067 228.267 380.6 225.333 380.733 221.067C380.867 215.6 377.533 209.733 373.133 208C371.533 207.467 355.533 204.667 337.533 202.133C319.667 199.467 303.267 196.933 301.267 196.533C297.933 195.867 295.933 192.4 280.467 161.467C266.733 134.267 262.6 126.933 259.8 125.6C255.4 123.6 251.4 123.733 247.267 125.733ZM266.6 192.667C274.067 207.333 280.2 218 281.933 219.2C283.667 220.267 295.8 222.667 309 224.667C322.2 226.533 334.467 228.533 336.067 229.067C339 230 337.533 231.733 319.267 249.467C308.067 260.267 298.867 270.267 298.333 272.133C297.933 273.867 299.533 287.467 302.067 302.4C304.6 317.2 306.333 329.333 305.933 329.333C305.667 329.333 294.333 323.6 280.867 316.667C267.267 309.733 255.133 304 253.8 304C252.467 304 240.2 309.733 226.6 316.667C213.133 323.6 201.667 329.333 201.4 329.333C201 329.333 202.733 317.2 205.267 302.4C207.8 287.467 209.4 273.867 209 272C208.467 270.133 199.533 260.4 187.933 249.2C168.067 230 167.8 229.6 171.667 228.933C173.933 228.4 186.2 226.533 199 224.533C211.8 222.667 223.667 220.267 225.4 219.2C227.133 218 233.267 207.467 240.733 192.667C247.4 179.067 253.267 168 253.667 168C254.067 168 259.933 179.067 266.6 192.667Z" fill="#0C2957"/>
</svg>
