<svg width="371" height="355" viewBox="0 0 371 355" fill="none" xmlns="http://www.w3.org/2000/svg">
<path d="M62.0625 1.73846C58.2822 2.9166 51.8018 9.24902 50.6445 13.0043C50.1045 14.6978 49.7188 17.9377 49.7188 20.2203V24.3438H26.96H4.12402L2.27246 26.1846L0.34375 27.9518V177.5V327.048L2.27246 328.815C3.81543 330.362 4.89551 330.656 8.44434 330.656H12.6875V340.597C12.6875 350.243 12.7646 350.684 14.6162 352.378L16.4678 354.219H191.672H366.876L368.728 352.378L370.656 350.611V195.172V39.733L368.728 37.9658C366.953 36.1986 366.49 36.125 356.384 36.125H345.969V32.0752C345.969 28.6881 345.66 27.6572 344.04 26.1846L342.188 24.3438H319.353H296.594V20.2203C296.594 14.256 295.205 10.7217 291.425 6.67188C284.096 -1.13321 273.218 -1.28049 265.349 6.30371C260.951 10.4272 259.562 13.8142 259.562 20.2203V24.3438H253.391H247.219V20.2203C247.219 14.256 245.83 10.7217 242.05 6.67188C234.721 -1.13321 223.843 -1.28049 215.974 6.30371C211.576 10.4272 210.188 13.8142 210.188 20.2203V24.3438H173.156H136.125V20.2203C136.125 14.256 134.736 10.7217 130.956 6.67188C123.627 -1.13321 112.749 -1.28049 104.88 6.30371C100.482 10.4272 99.0938 13.8142 99.0938 20.2203V24.3438H92.9219H86.75V20.2203C86.75 14.256 85.3613 10.7217 81.5811 6.67188C76.5664 1.3703 69.3916 -0.47052 62.0625 1.73846ZM72.4775 14.4033C74.0977 15.876 74.4062 16.9068 74.4062 20.2939V24.3438H68.2344H62.0625V20.2939C62.0625 15.3605 64.2998 12.5625 68.2344 12.5625C69.7002 12.5625 71.3203 13.2252 72.4775 14.4033ZM121.853 14.4033C123.473 15.876 123.781 16.9068 123.781 20.2939V24.3438H117.609H111.438V20.2939C111.438 15.3605 113.675 12.5625 117.609 12.5625C119.075 12.5625 120.695 13.2252 121.853 14.4033ZM232.946 14.4033C234.566 15.876 234.875 16.9068 234.875 20.2939V24.3438H228.703H222.531V20.2939C222.531 15.3605 224.769 12.5625 228.703 12.5625C230.169 12.5625 231.789 13.2252 232.946 14.4033ZM282.321 14.4033C283.941 15.876 284.25 16.9068 284.25 20.2939V24.3438H278.078H271.906V20.2939C271.906 15.3605 274.144 12.5625 278.078 12.5625C279.544 12.5625 281.164 13.2252 282.321 14.4033ZM49.7188 40.2484C49.7188 46.6545 51.1074 50.0416 55.5049 54.165C61.291 59.7611 68.8516 61.381 72.4775 57.8467C76.335 54.2387 73.6348 47.9062 68.2344 47.9062C64.2998 47.9062 62.0625 45.1082 62.0625 40.1748V36.125H80.5781H99.0938V40.2484C99.0938 46.6545 100.482 50.0416 104.88 54.165C110.666 59.7611 118.227 61.381 121.853 57.8467C125.71 54.2387 123.01 47.9062 117.609 47.9062C113.675 47.9062 111.438 45.1082 111.438 40.1748V36.125H160.812H210.188V40.2484C210.188 46.6545 211.576 50.0416 215.974 54.165C221.76 59.7611 229.32 61.381 232.946 57.8467C236.804 54.2387 234.104 47.9062 228.703 47.9062C224.769 47.9062 222.531 45.1082 222.531 40.1748V36.125H241.047H259.562V40.2484C259.562 46.6545 260.951 50.0416 265.349 54.165C271.135 59.7611 278.695 61.381 282.321 57.8467C286.179 54.2387 283.479 47.9062 278.078 47.9062C274.144 47.9062 271.906 45.1082 271.906 40.1748V36.125H302.766H333.625V65.5781V95.0312H173.156H12.6875V65.5781V36.125H31.2031H49.7188V40.2484ZM358.312 195.172V342.438H191.672H25.0312V336.547V330.656H183.571H342.188L344.04 328.815L345.969 327.048V187.44V47.9062H352.141H358.312V195.172ZM333.625 212.844V318.875H173.156H12.6875V212.844V106.812H173.156H333.625V212.844Z" fill="#89BE1D"/>
<path d="M120.772 149.225C105.111 153.201 92.9219 167.78 92.9219 182.507C92.9219 188.177 98.6309 191.269 102.951 187.956C104.34 186.925 104.88 185.452 105.343 181.771C106.5 172.788 111.515 165.792 119.538 162.037C122.701 160.564 124.553 160.196 129.953 160.196C137.668 160.196 142.297 161.963 147.312 166.823C161.97 180.74 152.943 204.671 132.268 206.732C126.481 207.248 123.781 209.236 123.781 212.696C123.781 216.452 125.941 218.145 131.65 218.808C141.062 219.913 148.392 224.699 152.326 232.356C155.026 237.584 155.026 246.862 152.326 252.237C149.935 256.95 145.306 261.368 140.368 263.65C134.736 266.228 125.016 266.228 119.538 263.65C111.515 259.895 106.5 252.9 105.343 243.917C104.88 240.235 104.34 238.763 102.951 237.732C98.6309 234.418 92.9219 237.511 92.9219 243.18C92.9219 251.427 97.6279 261.368 104.417 267.553C119.075 280.954 140.831 280.954 155.489 267.553C170.688 253.71 170.688 230.81 155.412 216.894L150.86 212.844L155.412 208.794C170.302 195.172 170.765 173.377 156.415 159.018C147.312 149.888 133.271 145.985 120.772 149.225Z" fill="#89BE1D"/>
<path d="M207.179 149.225C194.141 152.538 183.957 162.479 180.485 175.07C178.788 181.329 178.788 244.432 180.485 250.765C185.346 268.363 203.321 279.85 221.914 277.052C237.035 274.843 249.765 263.209 252.619 248.997C253.082 246.715 253.391 231.473 253.391 212.181C253.391 185.379 253.159 178.531 252.233 175.07C247.064 155.999 226.543 144.218 207.179 149.225ZM226.466 161.963C231.789 164.393 235.106 167.412 238.038 172.493L240.661 177.132V212.844V248.556L238.038 253.195C235.106 258.349 232.638 260.631 226.852 263.503C223.534 265.123 221.914 265.418 216.359 265.418C210.342 265.491 209.416 265.27 204.941 262.988C199.618 260.263 196.532 257.171 193.832 251.869C192.058 248.556 192.058 248.408 192.058 212.844V177.132L193.986 173.45C197.227 167.118 203.476 162.258 210.573 160.491C214.354 159.534 222.763 160.344 226.466 161.963Z" fill="#89BE1D"/>
</svg>
