<svg width="395" height="377" viewBox="0 0 395 377" fill="none" xmlns="http://www.w3.org/2000/svg">
<path d="M74.0625 12.7385C70.2822 13.9166 63.8018 20.249 62.6445 24.0043C62.1045 25.6978 61.7188 28.9377 61.7188 31.2203V35.3437H38.96H16.124L14.2725 37.1846L12.3438 38.9518V188.5V338.048L14.2725 339.815C15.8154 341.362 16.8955 341.656 20.4443 341.656H24.6875V351.597C24.6875 361.243 24.7646 361.684 26.6162 363.378L28.4678 365.219H203.672H378.876L380.728 363.378L382.656 361.611V206.172V50.733L380.728 48.9658C378.953 47.1986 378.49 47.125 368.384 47.125H357.969V43.0752C357.969 39.6881 357.66 38.6572 356.04 37.1846L354.188 35.3437H331.353H308.594V31.2203C308.594 25.256 307.205 21.7217 303.425 17.6719C296.096 9.86679 285.218 9.71952 277.349 17.3037C272.951 21.4271 271.562 24.8143 271.562 31.2203V35.3437H265.391H259.219V31.2203C259.219 25.256 257.83 21.7217 254.05 17.6719C246.721 9.86679 235.843 9.71952 227.974 17.3037C223.576 21.4271 222.188 24.8143 222.188 31.2203V35.3437H185.156H148.125V31.2203C148.125 25.256 146.736 21.7217 142.956 17.6719C135.627 9.86679 124.749 9.71952 116.88 17.3037C112.482 21.4271 111.094 24.8143 111.094 31.2203V35.3437H104.922H98.75V31.2203C98.75 25.256 97.3613 21.7217 93.5811 17.6719C88.5664 12.3703 81.3916 10.5295 74.0625 12.7385ZM84.4775 25.4033C86.0977 26.876 86.4062 27.9068 86.4062 31.2939V35.3437H80.2344H74.0625V31.2939C74.0625 26.3605 76.2998 23.5625 80.2344 23.5625C81.7002 23.5625 83.3203 24.2252 84.4775 25.4033ZM133.853 25.4033C135.473 26.876 135.781 27.9068 135.781 31.2939V35.3437H129.609H123.438V31.2939C123.438 26.3605 125.675 23.5625 129.609 23.5625C131.075 23.5625 132.695 24.2252 133.853 25.4033ZM244.946 25.4033C246.566 26.876 246.875 27.9068 246.875 31.2939V35.3437H240.703H234.531V31.2939C234.531 26.3605 236.769 23.5625 240.703 23.5625C242.169 23.5625 243.789 24.2252 244.946 25.4033ZM294.321 25.4033C295.941 26.876 296.25 27.9068 296.25 31.2939V35.3437H290.078H283.906V31.2939C283.906 26.3605 286.144 23.5625 290.078 23.5625C291.544 23.5625 293.164 24.2252 294.321 25.4033ZM61.7188 51.2484C61.7188 57.6545 63.1074 61.0416 67.5049 65.165C73.291 70.7611 80.8516 72.381 84.4775 68.8467C88.335 65.2387 85.6348 58.9062 80.2344 58.9062C76.2998 58.9062 74.0625 56.1082 74.0625 51.1748V47.125H92.5781H111.094V51.2484C111.094 57.6545 112.482 61.0416 116.88 65.165C122.666 70.7611 130.227 72.381 133.853 68.8467C137.71 65.2387 135.01 58.9062 129.609 58.9062C125.675 58.9062 123.438 56.1082 123.438 51.1748V47.125H172.812H222.188V51.2484C222.188 57.6545 223.576 61.0416 227.974 65.165C233.76 70.7611 241.32 72.381 244.946 68.8467C248.804 65.2387 246.104 58.9062 240.703 58.9062C236.769 58.9062 234.531 56.1082 234.531 51.1748V47.125H253.047H271.562V51.2484C271.562 57.6545 272.951 61.0416 277.349 65.165C283.135 70.7611 290.695 72.381 294.321 68.8467C298.179 65.2387 295.479 58.9062 290.078 58.9062C286.144 58.9062 283.906 56.1082 283.906 51.1748V47.125H314.766H345.625V76.5781V106.031H185.156H24.6875V76.5781V47.125H43.2031H61.7188V51.2484ZM370.312 206.172V353.437H203.672H37.0312V347.547V341.656H195.571H354.188L356.04 339.815L357.969 338.048V198.44V58.9062H364.141H370.312V206.172ZM345.625 223.844V329.875H185.156H24.6875V223.844V117.812H185.156H345.625V223.844Z" fill="#00FAFF" fill-opacity="0.275"/>
<path d="M132.772 160.225C117.111 164.201 104.922 178.78 104.922 193.507C104.922 199.177 110.631 202.269 114.951 198.956C116.34 197.925 116.88 196.452 117.343 192.771C118.5 183.788 123.515 176.792 131.538 173.037C134.701 171.564 136.553 171.196 141.953 171.196C149.668 171.196 154.297 172.963 159.312 177.823C173.97 191.74 164.943 215.671 144.268 217.732C138.481 218.248 135.781 220.236 135.781 223.696C135.781 227.452 137.941 229.145 143.65 229.808C153.062 230.913 160.392 235.699 164.326 243.356C167.026 248.584 167.026 257.862 164.326 263.237C161.935 267.95 157.306 272.368 152.368 274.65C146.736 277.228 137.016 277.228 131.538 274.65C123.515 270.895 118.5 263.9 117.343 254.917C116.88 251.235 116.34 249.763 114.951 248.732C110.631 245.418 104.922 248.511 104.922 254.18C104.922 262.427 109.628 272.368 116.417 278.553C131.075 291.954 152.831 291.954 167.489 278.553C182.688 264.71 182.688 241.81 167.412 227.894L162.86 223.844L167.412 219.794C182.302 206.172 182.765 184.377 168.415 170.018C159.312 160.888 145.271 156.985 132.772 160.225Z" fill="#00FAFF" fill-opacity="0.275"/>
<path d="M219.179 160.225C206.141 163.538 195.957 173.479 192.485 186.07C190.788 192.329 190.788 255.432 192.485 261.765C197.346 279.363 215.321 290.85 233.914 288.052C249.035 285.843 261.765 274.209 264.619 259.997C265.082 257.715 265.391 242.473 265.391 223.181C265.391 196.379 265.159 189.531 264.233 186.07C259.064 166.999 238.543 155.218 219.179 160.225ZM238.466 172.963C243.789 175.393 247.106 178.412 250.038 183.493L252.661 188.132V223.844V259.556L250.038 264.195C247.106 269.349 244.638 271.631 238.852 274.503C235.534 276.123 233.914 276.418 228.359 276.418C222.342 276.491 221.416 276.27 216.941 273.988C211.618 271.263 208.532 268.171 205.832 262.869C204.058 259.556 204.058 259.408 204.058 223.844V188.132L205.986 184.45C209.227 178.118 215.476 173.258 222.573 171.491C226.354 170.534 234.763 171.344 238.466 172.963Z" fill="#00FAFF" fill-opacity="0.275"/>
</svg>
