<svg width="515" height="330" viewBox="0 0 515 330" fill="none" xmlns="http://www.w3.org/2000/svg">
<path d="M251.753 0.765378C247.155 1.95246 241.281 5.28913 234.831 10.3904C233.171 11.7058 230.106 14.1441 228.031 15.7483C220.305 21.8762 215.835 24.4108 210.088 25.9829L206.895 26.8812H190.134C175.351 26.9133 173.053 26.9775 170.69 27.4908C162.453 29.2233 157.376 33.1695 153.577 40.8054C151.725 44.5591 150.384 48.345 148.118 56.3337C144.574 68.9104 143.009 73.0171 140.263 77.3162C137.135 82.1608 133.463 85.4012 123.278 92.2671C112.423 99.55 108.56 102.63 105.463 106.576C101.791 111.196 100.418 115.014 100.418 120.757C100.418 126.372 101.376 130.254 105.974 142.927C110.284 154.862 111.274 159 111.274 165C111.274 171 110.284 175.138 105.974 187.073C101.376 199.746 100.418 203.628 100.418 209.243C100.418 214.986 101.791 218.804 105.463 223.424C108.528 227.306 112.583 230.578 122.448 237.187C133.048 244.278 137.135 247.839 140.232 252.652C143.009 256.983 144.542 261.057 148.118 273.666C150.384 281.655 151.725 285.441 153.577 289.195C157.376 296.83 162.453 300.777 170.69 302.509C173.053 303.022 175.351 303.087 190.134 303.119H206.895L210.088 303.985C213.919 305.044 218.676 307.354 222.38 309.952C223.88 311.011 227.744 313.995 231 316.594C243.931 326.892 249.901 329.908 257.5 329.908C264.332 329.908 270.877 326.925 280.168 319.61C281.828 318.294 284.893 315.856 286.968 314.252C294.695 308.124 299.165 305.589 304.911 304.017L308.104 303.119H324.866C339.648 303.087 341.947 303.022 344.309 302.509C352.547 300.777 357.623 296.83 361.422 289.195C363.274 285.441 364.615 281.655 366.882 273.666C373.076 251.785 375.119 248.866 392.072 237.508C402.289 230.675 406.471 227.306 409.536 223.424C413.208 218.804 414.581 214.986 414.581 209.243C414.581 203.628 413.623 199.746 409.026 187.073C404.396 174.208 403.534 170.358 403.822 163.396C404.013 158.455 404.907 154.477 407.429 147.45C413.464 130.639 414.581 126.436 414.581 120.757C414.581 115.014 413.208 111.196 409.536 106.576C406.471 102.694 402.417 99.4216 392.551 92.8125C381.951 85.7221 377.897 82.1929 374.864 77.4766C371.958 73.0171 370.458 69.0066 366.882 56.3337C364.615 48.345 363.274 44.5591 361.422 40.8054C357.623 33.1695 352.547 29.2233 344.309 27.4908C341.947 26.9775 339.648 26.9133 324.866 26.8812H308.104L304.911 25.9829C299.165 24.4108 294.695 21.8762 286.968 15.7483C284.893 14.1441 281.828 11.7058 280.168 10.3904C273.623 5.22496 267.812 1.92038 263.119 0.733295C259.767 -0.100872 255.041 -0.100872 251.753 0.765378ZM271.548 41.3187C305.071 45.3933 334.795 62.2371 355.356 88.8021C369.276 106.801 377.769 127.719 380.642 151.204C381.441 157.717 381.441 172.283 380.642 178.796C377.673 202.858 368.861 224.194 354.271 242.577C335.721 265.934 309.094 282.008 280.04 287.398C271.803 288.906 267.237 289.291 257.5 289.291C247.762 289.291 243.196 288.906 234.959 287.398C184.802 278.094 144.957 238.054 135.698 187.651C134.197 179.437 133.814 174.753 133.814 165.16C133.782 155.728 134.07 152.231 135.411 144.146C141.892 105.197 167.082 71.2204 202.585 53.4783C215.803 46.8691 230.873 42.5379 245.048 41.1904C247.06 40.9979 249.294 40.7733 249.997 40.7091C252.966 40.4204 267.493 40.8375 271.548 41.3187Z" fill="#0C2957"/>
<path d="M249.677 52.9008C206.129 56.3016 169.157 83.7008 153.29 124.286C139.05 160.797 145.34 203.468 169.509 234.3C186.015 255.315 209.386 269.848 235.151 275.014C243.675 276.746 247.283 277.099 257.021 277.099C266.152 277.131 269.536 276.875 276.656 275.655C321.194 267.955 357.08 233.434 366.658 189.062C376.428 143.921 358.038 97.7533 320.077 71.9904C304.911 61.6916 288.66 55.66 269.951 53.35C267.142 52.997 252.519 52.6762 249.677 52.9008ZM269.664 131.473C276.56 142.895 281.477 150.755 282.083 151.268C283.392 152.359 285.532 152.905 287.096 152.552C287.767 152.391 297.408 147.194 308.551 140.97C320.779 134.136 329.08 129.708 329.463 129.772C329.814 129.837 330.166 130.125 330.23 130.414C330.325 130.895 327.037 145.14 316.309 190.987L314.458 198.848H257.5H200.51L198.722 191.148C197.732 186.913 194.156 171.641 190.804 157.204C187.42 142.798 184.706 130.735 184.77 130.414C184.834 130.125 185.185 129.837 185.536 129.772C185.919 129.708 194.22 134.136 206.448 140.97C217.591 147.194 227.233 152.391 227.903 152.552C229.404 152.872 231.415 152.391 232.788 151.365C233.459 150.851 237.577 144.338 245.048 131.89C251.242 121.591 256.478 112.993 256.638 112.768C257.595 111.549 258.17 112.383 269.664 131.473ZM314.33 209.596C314.33 215.916 314.298 216.365 313.691 216.975C313.053 217.617 312.638 217.617 257.5 217.617C202.362 217.617 201.947 217.617 201.308 216.975C200.701 216.365 200.669 215.916 200.669 209.596V202.858H257.5H314.33V209.596Z" fill="#0C2957"/>
<path d="M4.86083 61.05C1.57234 62.0445 -0.566773 66.3116 0.550675 69.5841C0.806092 70.29 11.5017 90.727 24.3364 114.982C37.171 139.237 47.9943 159.706 48.3775 160.508C48.8883 161.471 49.1118 162.562 49.1437 163.813C49.1756 165.898 50.6443 162.818 35.6705 191.79C31.041 200.773 21.1756 219.83 13.8004 234.14C-0.662554 262.116 -0.470992 261.699 0.486821 264.619C0.997654 266.191 2.59401 267.955 4.15844 268.661C5.37167 269.239 8.30895 269.271 72.2589 269.271C129.376 269.271 139.05 269.207 139.05 268.822C139.05 267.795 136.656 261.507 135.123 258.587C132.473 253.422 129.632 250.855 118.138 243.123C110.061 237.669 106.708 235.134 103.196 231.765C98.8222 227.595 96.0765 223.392 94.2886 218.258C93.235 215.242 93.235 215.146 93.235 209.275C93.235 203.66 93.2989 203.115 94.2567 199.329C94.7994 197.115 96.0765 193.009 97.0663 190.185C98.0879 187.362 99.6843 182.806 100.642 180.079C103.037 173.245 103.931 169.203 103.931 165C103.931 160.797 103.037 156.755 100.642 149.921C99.6843 147.194 98.0879 142.638 97.0663 139.815C96.0765 136.991 94.7994 132.885 94.2567 130.671C93.2989 126.885 93.235 126.34 93.235 120.725C93.235 114.854 93.235 114.757 94.2886 111.742C96.0765 106.608 98.8222 102.405 103.196 98.2345C106.708 94.8658 110.061 92.3312 118.138 86.877C129.632 79.145 132.473 76.5783 135.123 71.4129C136.656 68.4933 139.05 62.205 139.05 61.1783C139.05 60.7933 129.408 60.7291 72.4185 60.7612C35.7343 60.7612 5.33974 60.9216 4.86083 61.05Z" fill="#0C2957"/>
<path d="M375.949 61.1783C375.949 62.205 378.344 68.4933 379.876 71.4129C382.526 76.5783 385.368 79.145 396.861 86.877C404.939 92.3312 408.291 94.8658 411.803 98.2345C416.177 102.405 418.923 106.608 420.711 111.742C421.765 114.79 421.765 114.79 421.733 120.885C421.733 126.853 421.701 127.077 420.583 131.345C419.945 133.719 418.476 138.339 417.295 141.611C411.931 156.498 411.069 159.77 411.069 165.064C411.069 169.203 411.963 173.277 414.358 180.079C415.315 182.806 416.912 187.362 417.933 190.185C418.923 193.009 420.2 197.115 420.743 199.329C421.701 203.115 421.765 203.66 421.765 209.275C421.765 215.146 421.765 215.242 420.711 218.258C419.498 221.787 418.316 223.937 415.986 227.081C412.346 231.958 407.653 235.872 396.542 243.347C385.368 250.855 382.239 253.775 379.461 259.357C378.248 261.763 375.949 267.955 375.949 268.822C375.949 269.207 385.623 269.271 442.773 269.271C506.691 269.271 509.628 269.239 510.841 268.661C512.406 267.955 514.002 266.191 514.513 264.619C515.503 261.603 516.556 263.817 490.504 213.414C477.222 187.747 466.207 166.123 465.984 165.385C465.537 163.652 465.824 162.145 467.101 159.546C467.676 158.391 478.595 137.761 491.334 113.699C506.946 84.182 514.545 69.4879 514.704 68.5895C515.087 66.0229 513.81 63.2637 511.607 61.7879L510.235 60.8895L443.092 60.7933C385.432 60.7291 375.949 60.7933 375.949 61.1783Z" fill="#0C2957"/>
</svg>
