<svg width="397" height="368" viewBox="0 0 397 368" fill="none" xmlns="http://www.w3.org/2000/svg">
<path d="M90.3863 0.58711C86.1357 1.53929 81.7247 4.61556 79.88 8.05805C78.9978 9.88916 78.1958 11.7935 78.1958 12.4527C78.1958 13.4781 75.7898 13.6246 59.1882 13.9176C44.0303 14.2106 39.2182 14.5768 35.6894 15.529C19.0076 20.3631 6.57647 31.7893 1.44362 47.0974C0.0802008 51.2723 0 57.6446 0 190.657C0 323.669 0.0802008 330.041 1.44362 334.216C6.65667 349.744 19.8898 361.682 36.5716 365.857C41.3836 367.103 51.2483 367.176 198.497 367.176C345.746 367.176 355.611 367.103 360.423 365.857C377.104 361.682 390.337 349.744 395.551 334.216C396.914 330.041 396.994 325.207 396.994 243.393V156.964L395.069 153.888C388.814 143.927 373.094 144 367.079 153.961C365.796 156.085 365.716 162.75 365.315 241.561C364.834 336.193 365.315 328.576 359.621 333.703C354.247 338.537 364.192 338.244 198.497 338.244C32.8021 338.244 42.747 338.537 37.3736 333.703C31.5991 328.576 32.0803 338.171 31.8397 224.935L31.6793 122.905L206.277 122.759L380.954 122.539L384.242 120.928C389.616 118.291 392.342 115.801 394.749 111.333L396.994 107.158V79.3249C396.994 54.3486 396.834 51.0526 395.551 47.0974C390.418 31.7893 377.987 20.3631 361.305 15.529C357.776 14.5768 352.964 14.2106 337.886 13.9176C321.204 13.6246 318.798 13.4781 318.798 12.4527C318.798 9.9624 315.269 4.83529 312.302 3.00418C305.325 -1.244 297.625 -0.658046 291.851 4.61556C289.766 6.51991 288.242 8.71725 287.841 10.5484L287.039 13.4049L250.948 13.6246L214.778 13.7711L213.815 10.8413C212.693 7.39885 208.923 3.22391 205.394 1.53929C202.186 0.00115424 194.808 0.00115424 191.6 1.53929C188.071 3.22391 184.302 7.39885 183.179 10.8413L182.216 13.7711H166.818C148.773 13.7711 145.083 14.4303 140.592 18.6785C137.063 22.0477 135.94 24.4648 135.94 29.006C135.94 33.1809 138.346 37.2826 142.597 40.4321L145.725 42.7027L164.091 42.9224L182.377 43.1422L182.938 45.7057C184.221 51.8583 191.199 56.9854 198.497 56.9854C205.795 56.9854 212.773 51.8583 214.056 45.6325L214.617 43.0689L250.868 43.2154L287.039 43.4351L287.6 45.8522C288.482 49.6609 291.931 53.7626 295.7 55.4472C304.843 59.4757 315.59 55.081 318.237 46.2184L319.199 42.9957L336.042 43.2154C352.803 43.4351 352.884 43.4351 356.653 45.486C359.139 46.8044 361.225 48.7087 362.668 50.9793L364.914 54.4218L365.154 73.9781L365.395 93.6076H198.497H31.5991L31.8397 73.9781L32.0803 54.4218L34.326 50.9793C35.7696 48.7087 37.8548 46.8044 40.341 45.486C44.1105 43.4351 44.1907 43.4351 60.9526 43.2154L77.7948 42.9957L78.7572 46.2184C82.3663 58.5235 100.091 60.8673 107.469 50.0271L109.875 46.5114L110.116 31.0568C110.517 12.0865 109.875 9.01023 105.143 4.61556C102.817 2.56471 100.572 1.31956 98.0856 0.733599C93.9152 -0.218579 94.1558 -0.218579 90.3863 0.58711Z" fill="#00FAFF" fill-opacity="0.275"/>
<path d="M159.921 156.598C149.414 159.454 145.645 172.199 153.023 179.816C158.156 185.09 158.236 185.163 193.124 185.163C210.207 185.163 224.161 185.31 224.161 185.383C224.161 185.529 213.495 207.869 200.422 235.043C178.688 280.015 176.602 284.849 176.282 289.17C175.961 293.492 176.121 294.224 178.367 297.374C182.136 302.721 189.033 305.357 195.45 303.819C200.181 302.647 203.79 299.937 206.036 295.909C207.079 294.005 220.472 266.098 235.791 233.871C254.798 193.879 263.781 174.177 264.101 171.906C264.743 165.607 261.214 159.821 255.039 157.257C252.071 156.012 248.863 155.865 206.918 155.939C182.216 155.939 161.043 156.232 159.921 156.598Z" fill="#00FAFF" fill-opacity="0.275"/>
<path d="M159.941 156.661L159.938 156.662C149.477 159.506 145.731 172.191 153.071 179.77C154.356 181.09 155.317 182.076 156.582 182.819C157.846 183.562 159.418 184.063 161.925 184.401C166.941 185.078 175.677 185.097 193.124 185.097C201.665 185.097 209.425 185.133 215.049 185.179C217.861 185.202 220.14 185.227 221.715 185.251C222.503 185.263 223.115 185.275 223.53 185.286C223.738 185.291 223.897 185.297 224.004 185.302C224.028 185.303 224.049 185.304 224.068 185.305C224.092 185.307 224.111 185.308 224.127 185.31C224.141 185.311 224.153 185.312 224.163 185.314C224.167 185.315 224.174 185.316 224.18 185.318C224.183 185.319 224.191 185.322 224.198 185.327C224.203 185.33 224.228 185.348 224.228 185.383C224.228 185.393 224.226 185.4 224.226 185.402L224.225 185.403C224.225 185.406 224.224 185.409 224.223 185.412C224.221 185.417 224.218 185.424 224.216 185.431C224.21 185.445 224.202 185.464 224.192 185.488C224.171 185.536 224.14 185.605 224.099 185.694C224.018 185.873 223.897 186.134 223.738 186.473C223.421 187.151 222.953 188.142 222.351 189.411C221.146 191.951 219.405 195.606 217.254 200.106C212.953 209.106 207.018 221.485 200.482 235.072L200.482 235.072C189.615 257.558 183.66 270.009 180.383 277.378C177.104 284.748 176.508 287.027 176.348 289.175C176.188 291.338 176.149 292.59 176.426 293.695C176.704 294.799 177.298 295.76 178.421 297.335L178.421 297.335C182.175 302.66 189.044 305.286 195.434 303.755C200.148 302.587 203.742 299.888 205.978 295.876C207.021 293.971 220.412 266.069 235.73 233.842C245.234 213.847 252.231 198.923 256.893 188.715C259.224 183.611 260.97 179.687 262.154 176.896C262.746 175.501 263.197 174.39 263.51 173.557C263.824 172.723 263.996 172.174 264.035 171.898C264.673 165.63 261.163 159.871 255.013 157.319L255.013 157.319C253.542 156.701 252.009 156.353 245.593 156.17C239.178 155.987 227.891 155.969 206.918 156.005C194.568 156.005 183.099 156.079 174.578 156.198C170.318 156.257 166.794 156.328 164.266 156.407C163.002 156.447 161.987 156.488 161.253 156.531C160.886 156.552 160.59 156.574 160.369 156.596C160.144 156.619 160.003 156.641 159.941 156.661Z" stroke="#00FAFF" stroke-opacity="0.275" stroke-width="0.133333"/>
</svg>
