<svg width="397" height="353" viewBox="0 0 397 353" fill="none" xmlns="http://www.w3.org/2000/svg">
<path d="M90.3922 -14.4129C86.1416 -13.4607 81.7305 -10.3844 79.8859 -6.94195C79.0037 -5.11084 78.2017 -3.20648 78.2017 -2.54728C78.2017 -1.52186 75.7956 -1.37537 59.1941 -1.08239C44.0361 -0.789415 39.2241 -0.423192 35.6952 0.528986C19.0135 5.36312 6.58233 16.7893 1.44947 32.0974C0.0860602 36.2723 0.00585938 42.6446 0.00585938 175.657C0.00585938 308.669 0.0860602 315.041 1.44947 319.216C6.66253 334.744 19.8957 346.682 36.5774 350.857C41.3895 352.103 51.2542 352.176 198.503 352.176C345.752 352.176 355.616 352.103 360.428 350.857C377.11 346.682 390.343 334.744 395.556 319.216C396.92 315.041 397 310.207 397 228.393V141.964L395.075 138.888C388.82 128.927 373.1 129 367.085 138.961C365.802 141.085 365.722 147.75 365.321 226.561C364.839 321.193 365.321 313.576 359.626 318.703C354.253 323.537 364.198 323.244 198.503 323.244C32.808 323.244 42.7529 323.537 37.3794 318.703C31.605 313.576 32.0862 323.171 31.8456 209.935L31.6852 107.905L206.282 107.759L380.96 107.539L384.248 105.928C389.622 103.291 392.348 100.801 394.754 96.3328L397 92.1578V64.3249C397 39.3486 396.84 36.0526 395.556 32.0974C390.424 16.7893 377.992 5.36312 361.311 0.528986C357.782 -0.423192 352.97 -0.789415 337.892 -1.08239C321.21 -1.37537 318.804 -1.52186 318.804 -2.54728C318.804 -5.0376 315.275 -10.1647 312.308 -11.9958C305.33 -16.244 297.631 -15.658 291.857 -10.3844C289.771 -8.48009 288.248 -6.28275 287.847 -4.45164L287.045 -1.5951L250.954 -1.37537L214.784 -1.22888L213.821 -4.15866C212.698 -7.60115 208.929 -11.7761 205.4 -13.4607C202.192 -14.9988 194.814 -14.9988 191.606 -13.4607C188.077 -11.7761 184.307 -7.60115 183.185 -4.15866L182.222 -1.22888H166.824C148.778 -1.22888 145.089 -0.569681 140.598 3.6785C137.069 7.04775 135.946 9.46481 135.946 14.006C135.946 18.1809 138.352 22.2826 142.603 25.4321L145.731 27.7027L164.097 27.9224L182.383 28.1422L182.944 30.7057C184.227 36.8583 191.205 41.9854 198.503 41.9854C205.801 41.9854 212.779 36.8583 214.062 30.6325L214.623 28.0689L250.874 28.2154L287.045 28.4351L287.606 30.8522C288.488 34.6609 291.937 38.7626 295.706 40.4472C304.849 44.4757 315.596 40.081 318.243 31.2184L319.205 27.9957L336.047 28.2154C352.809 28.4351 352.89 28.4351 356.659 30.486C359.145 31.8044 361.23 33.7087 362.674 35.9793L364.92 39.4218L365.16 58.9781L365.401 78.6076H198.503H31.605L31.8456 58.9781L32.0862 39.4218L34.3318 35.9793C35.7754 33.7087 37.8607 31.8044 40.3469 30.486C44.1163 28.4351 44.1965 28.4351 60.9585 28.2154L77.8007 27.9957L78.7631 31.2184C82.3721 43.5235 100.097 45.8673 107.475 35.0271L109.881 31.5114L110.122 16.0568C110.523 -2.9135 109.881 -5.98977 105.149 -10.3844C102.823 -12.4353 100.578 -13.6804 98.0915 -14.2664C93.921 -15.2186 94.1616 -15.2186 90.3922 -14.4129Z" fill="#0C2957"/>
<path d="M159.926 141.598C149.42 144.454 145.651 157.199 153.029 164.816C158.162 170.09 158.242 170.163 193.13 170.163C210.212 170.163 224.167 170.31 224.167 170.383C224.167 170.529 213.501 192.869 200.428 220.043C178.693 265.015 176.608 269.849 176.287 274.17C175.967 278.492 176.127 279.224 178.373 282.374C182.142 287.721 189.039 290.357 195.455 288.819C200.187 287.647 203.796 284.937 206.042 280.909C207.085 279.005 220.478 251.098 235.796 218.871C254.804 178.879 263.787 159.177 264.107 156.906C264.749 150.607 261.22 144.821 255.045 142.257C252.077 141.012 248.869 140.865 206.924 140.939C182.222 140.939 161.049 141.232 159.926 141.598Z" fill="#0C2957"/>
</svg>
